<mxfile host="drawio-plugin" modified="2024-01-03T23:53:05.511Z" agent="5.0 (Windows NT 6.2; Win64; x64) AppleWebKit/537.36 (KHTML, like Gecko) Chrome/98.0.4758.102 Safari/537.36" etag="R5jBKtTCZyxQOg6m1tkJ" version="20.5.3" type="embed"><diagram id="qksox0yAliujU24NLHoh" name="Страница — 1"><mxGraphModel dx="1379" dy="937" grid="1" gridSize="10" guides="1" tooltips="1" connect="1" arrows="1" fold="1" page="1" pageScale="1" pageWidth="827" pageHeight="1169" background="#283618" math="1" shadow="0"><root><mxCell id="0"/><mxCell id="1" parent="0"/><mxCell id="yiFnastSYoOXgxj5C6BG-4" value="&lt;font style=&quot;font-size: 19px;&quot;&gt;Data&lt;br&gt;(MySQL)&lt;br&gt;&lt;/font&gt;" style="strokeWidth=2;html=1;shape=mxgraph.flowchart.database;whiteSpace=wrap;sketch=1;curveFitting=1;jiggle=2;fillColor=#BC6C25;strokeColor=#DDA15E;fontColor=#FEFAE0;" parent="1" vertex="1"><mxGeometry x="660" y="370" width="130" height="130" as="geometry"/></mxCell><mxCell id="yiFnastSYoOXgxj5C6BG-6" value="&lt;font style=&quot;font-size: 17px;&quot;&gt;Monolith&lt;br&gt;&lt;/font&gt;" style="whiteSpace=wrap;html=1;aspect=fixed;rounded=1;shadow=0;fillColor=#BC6C25;strokeColor=#DDA15E;fontColor=#FEFAE0;" parent="1" vertex="1"><mxGeometry x="340" y="357.5" width="155" height="155" as="geometry"/></mxCell><mxCell id="yiFnastSYoOXgxj5C6BG-7" value="User (WEB)" style="shape=umlActor;verticalLabelPosition=bottom;verticalAlign=top;html=1;shadow=0;fillColor=#BC6C25;strokeColor=#DDA15E;fontColor=#FEFAE0;" parent="1" vertex="1"><mxGeometry x="40" y="350" width="100" height="170" as="geometry"/></mxCell><mxCell id="yiFnastSYoOXgxj5C6BG-13" value="&lt;span style=&quot;font-size: 17px;&quot;&gt;SSO&lt;/span&gt;" style="whiteSpace=wrap;html=1;aspect=fixed;rounded=1;fillColor=#BC6C25;strokeColor=#DDA15E;fontColor=#FEFAE0;" parent="1" vertex="1"><mxGeometry x="340" y="660" width="155" height="155" as="geometry"/></mxCell><mxCell id="yiFnastSYoOXgxj5C6BG-15" value="&lt;font style=&quot;font-size: 19px;&quot;&gt;Data&lt;br&gt;(MySQL)&lt;br&gt;&lt;/font&gt;" style="strokeWidth=2;html=1;shape=mxgraph.flowchart.database;whiteSpace=wrap;sketch=1;curveFitting=1;jiggle=2;fillColor=#BC6C25;strokeColor=#DDA15E;fontColor=#FEFAE0;" parent="1" vertex="1"><mxGeometry x="347.5" y="950" width="140" height="140" as="geometry"/></mxCell><mxCell id="yiFnastSYoOXgxj5C6BG-17" value="" style="endArrow=classic;html=1;rounded=0;entryX=0.5;entryY=0;entryDx=0;entryDy=0;exitX=0.5;exitY=1;exitDx=0;exitDy=0;strokeWidth=2;labelBackgroundColor=#283618;strokeColor=#DDA15E;fontColor=#FEFAE0;" parent="1" source="yiFnastSYoOXgxj5C6BG-6" target="yiFnastSYoOXgxj5C6BG-13" edge="1"><mxGeometry relative="1" as="geometry"><mxPoint x="410" y="520" as="sourcePoint"/><mxPoint x="413" y="612.5" as="targetPoint"/></mxGeometry></mxCell><mxCell id="yiFnastSYoOXgxj5C6BG-18" value="&lt;font style=&quot;font-size: 13px;&quot;&gt;gRPC&lt;/font&gt;" style="edgeLabel;resizable=0;html=1;align=center;verticalAlign=middle;labelBackgroundColor=#283618;fontColor=#FEFAE0;" parent="yiFnastSYoOXgxj5C6BG-17" connectable="0" vertex="1"><mxGeometry relative="1" as="geometry"/></mxCell><mxCell id="yiFnastSYoOXgxj5C6BG-21" value="" style="endArrow=classic;html=1;rounded=0;entryX=0.5;entryY=0;entryDx=0;entryDy=0;entryPerimeter=0;exitX=0.5;exitY=1;exitDx=0;exitDy=0;strokeWidth=2;labelBackgroundColor=#283618;strokeColor=#DDA15E;fontColor=#FEFAE0;" parent="1" source="yiFnastSYoOXgxj5C6BG-13" target="yiFnastSYoOXgxj5C6BG-15" edge="1"><mxGeometry width="50" height="50" relative="1" as="geometry"><mxPoint x="230" y="870" as="sourcePoint"/><mxPoint x="280" y="820" as="targetPoint"/></mxGeometry></mxCell><mxCell id="yiFnastSYoOXgxj5C6BG-22" value="" style="endArrow=classic;html=1;rounded=0;entryX=0;entryY=0.5;entryDx=0;entryDy=0;entryPerimeter=0;exitX=0.997;exitY=0.465;exitDx=0;exitDy=0;exitPerimeter=0;strokeWidth=2;labelBackgroundColor=#283618;strokeColor=#DDA15E;fontColor=#FEFAE0;" parent="1" source="yiFnastSYoOXgxj5C6BG-6" target="yiFnastSYoOXgxj5C6BG-4" edge="1"><mxGeometry width="50" height="50" relative="1" as="geometry"><mxPoint x="510" y="450" as="sourcePoint"/><mxPoint x="428" y="960" as="targetPoint"/></mxGeometry></mxCell><mxCell id="yiFnastSYoOXgxj5C6BG-23" value="" style="endArrow=classic;html=1;rounded=0;entryX=0;entryY=0.5;entryDx=0;entryDy=0;strokeWidth=2;labelBackgroundColor=#283618;strokeColor=#DDA15E;fontColor=#FEFAE0;" parent="1" target="yiFnastSYoOXgxj5C6BG-6" edge="1"><mxGeometry relative="1" as="geometry"><mxPoint x="130" y="430" as="sourcePoint"/><mxPoint x="230" y="430" as="targetPoint"/></mxGeometry></mxCell><mxCell id="yiFnastSYoOXgxj5C6BG-24" value="&lt;font style=&quot;font-size: 13px;&quot;&gt;HTTP&lt;/font&gt;" style="edgeLabel;resizable=0;html=1;align=center;verticalAlign=middle;labelBackgroundColor=#283618;fontColor=#FEFAE0;" parent="yiFnastSYoOXgxj5C6BG-23" connectable="0" vertex="1"><mxGeometry relative="1" as="geometry"/></mxCell></root></mxGraphModel></diagram></mxfile>